<?xml version="1.0" standalone="no"?><svg xmlns="http://www.w3.org/2000/svg" viewBox="0 0 1440 320"><path fill="#0082e6" fill-opacity="1" d="M0,288L34.3,272C68.6,256,137,224,206,186.7C274.3,149,343,107,411,74.7C480,43,549,21,617,48C685.7,75,754,149,823,165.3C891.4,181,960,139,1029,149.3C1097.1,160,1166,224,1234,245.3C1302.9,267,1371,245,1406,234.7L1440,224L1440,0L1405.7,0C1371.4,0,1303,0,1234,0C1165.7,0,1097,0,1029,0C960,0,891,0,823,0C754.3,0,686,0,617,0C548.6,0,480,0,411,0C342.9,0,274,0,206,0C137.1,0,69,0,34,0L0,0Z"></path></svg>